<?xml version="1.0" standalone="no"?><!DOCTYPE svg PUBLIC "-//W3C//DTD SVG 1.1//EN" "http://www.w3.org/Graphics/SVG/1.1/DTD/svg11.dtd"><svg width="329.8828125" height="200" viewBox="0 0 329.8828125 200" version="1.1" xmlns="http://www.w3.org/2000/svg" xmlns:xlink="http://www.w3.org/1999/xlink"><defs><style type="text/css"><![CDATA[
@font-face { font-family: ifont; src: url(http://at.alicdn.com/t/font_1442373896_4754455.eot?#iefix) format(embedded-opentype), url(http://at.alicdn.com/t/font_1442373896_4754455.woff) format(woff), url(http://at.alicdn.com/t/font_1442373896_4754455.ttf) format(truetype), url(http://at.alicdn.com/t/font_1442373896_4754455.svg#ifont) format(svg); }

]]></style></defs><g class="transform-group"><g transform="scale(0.1953125, 0.1953125)"><path d="M451.498658 528.95134c-1.176666 1.738256-3.302687 7.213763-6.384748 16.419835-3.082062 9.219443-6.825998 20.772161-11.231809 34.684895-4.399125 13.899363-9.179329 29.45007-14.307185 46.658806-5.141227 17.20205-10.422851 34.758437-15.851559 52.662475-5.428708 17.917409-10.63679 35.460425-15.624248 52.669161-5.000829 17.20205-9.46681 32.752757-13.424686 46.665491-3.964561 13.892678-7.260562 25.545679-9.90806 34.938948-2.640812 9.379897-4.258728 14.935632-4.840375 16.687259-1.470832 5.555734-3.817478 11.726543-7.039937 18.512428-3.235831 6.772513-7.046623 13.210747-11.445748 19.294643-4.405811 6.077211-9.2395 11.118154-14.52781 15.122828-5.28831 3.991303-10.717018 5.990298-16.286123 5.990298-9.399954 0-16.219267-3.128861-20.471309-9.379897-4.265413-6.264408-6.384748-17.723527-6.384748-34.410786 0-2.440244 0-4.873803 0-7.307361 0-2.433559 0.140398-5.040943 0.44125-7.815467 0.287481-5.56242 2.493729-16.005328 6.605373-31.295296 4.104959-15.296654 9.025561-32.585617 14.748435-51.88026 5.722874-19.294643 11.886998-39.277903 18.492371-59.963151s12.542187-39.19099 17.830497-55.543969c-15.564078 17.395932-32.431848 34.684895-50.623367 51.886945-18.20489 17.208736-36.837659 32.679215-55.911677 46.404753-19.080704 13.745595-38.301805 24.950661-57.66999 33.635256-19.368185 8.677909-38.014324 13.036921-55.911677 13.036921-20.54485 0-38.228264-4.526152-53.05024-13.558398-14.821976-9.045617-27.069996-20.859074-36.757432-35.460425s-16.881141-31.108099-21.574433-49.533614C5.689446 659.648144 3.3428 641.229315 3.3428 622.8038c0-2.420187 0-4.693292 0-6.785885 0-2.079222 0.140398-4.165129 0.44125-6.251036 1.758313-33.374518 6.525146-67.611478 14.307185-102.724252 7.775353-35.112774 17.970894-70.051722 30.599993-104.810159 12.615728-34.751751 27.21708-68.741344 43.804054-101.942036 16.573604-33.194006 34.624725-64.56953 54.146678-94.119884 19.515268-29.536983 40.280743-56.740691 62.28974-81.60444 22.008997-24.850377 44.606327-46.230927 67.798675-64.134966 23.178977-17.897353 46.585264-31.890314 70.212176-41.9722C370.562779 8.383743 393.975752 3.3428 417.154729 3.3428c26.702288 0 52.535449 7.300676 77.479424 21.895342 24.93729 14.601351 48.270036 38.24832 69.998237 70.914164 4.980772 7.300676 8.143061 14.688264 9.460125 22.15608 1.317063 7.481187 1.978938 14.514439 1.978938 21.119812 0 15.63762-3.743936 27.992609-11.225123 37.024856-7.481187 9.045617-16.359664 13.558398-26.635432 13.558398-9.393269 0-18.117977-4.95403-26.194183-14.86209-8.076205-9.90806-17.101766-24.068162-27.076682-42.493677-9.393269-16.687259-19.742578-28.761453-31.034558-36.235955-11.298665-7.474501-23.553371-11.211752-36.764117-11.211752-20.54485 0-42.480306 8.524141-65.813051 25.552365-23.332746 17.03491-46.444867 39.552013-69.336363 67.531251-22.898182 27.985924-44.833637 59.956465-65.819737 95.938367-20.979414 35.981902-39.552013 72.826246-55.691052 110.546404-16.145725 37.720158-28.982078 74.918839-38.515744 111.575987-9.540352 36.677204-14.307185 69.610472-14.307185 98.819861 0 9.727549 0.661874 19.729207 1.978938 29.971547 1.323749 10.255711 3.810792 19.562067 7.487873 27.899011 3.663709 8.343629 8.651167 15.209741 14.96906 20.59165 6.311207 5.408651 14.307185 8.082891 23.99462 8.082891 10.857415 0 23.185663-3.643652 36.978056-10.951014 13.785708-7.29399 28.099579-16.854399 42.921555-28.674541 14.815291-11.820142 29.710809-25.198028 44.686554-40.153717 14.96906-14.935632 28.901851-30.05846 41.818431-45.361799 12.909895-15.289968 24.362328-29.984918 34.337244-44.064793 9.974916-14.073189 17.456103-26.327895 22.450246-36.757432l40.942617-122.540371c4.987458-13.204061 11.512604-22.583958 19.588809-28.153064 8.06952-5.555734 16.359664-8.343629 24.877119-8.343629 4.104959 0 8.209917 0.701988 12.321562 2.085907 4.104959 1.390605 7.775353 3.563425 11.004498 6.51846 3.229145 2.955035 5.78973 6.779199 7.701812 11.47249 1.905396 4.693292 2.861437 10.168798 2.861437 16.419835 0 16.687259-1.470832 32.331564-4.399125 46.932915-2.934979 14.614723-6.678915 28.855052-11.225123 42.761101-4.552894 13.899363-9.613894 27.899011-15.182999 41.9722C462.202305 498.959736 456.773597 513.654686 451.498658 528.95134zM1006.617439 631.154115c-12.923266 17.382561-27.959181 34.323873-45.121118 50.837306-17.168622 16.513433-34.858721 31.201698-53.05024 44.064793-18.20489 12.85641-36.102243 23.199034-53.705429 31.021186-17.609872 7.822153-33.454745 11.733229-47.541305 11.733229s-25.532308-4.693292-34.34393-14.073189c-8.79825-9.379897-13.204061-25.371854-13.204061-47.975869 0-15.991956 2.346646-34.591297 7.039937-55.798022-7.634956 13.565083-17.161936 27.297307-28.607685 41.19667-11.452434 13.906049-24.509411 26.595319-39.184305 38.067809-14.674893 11.47249-31.108099 20.765475-49.306304 27.88564-18.198205 7.120165-38.014324 10.696961-59.428303 10.696961-9.68075 0-19.007162-1.223465-27.959181-3.657023-8.958705-2.426873-16.800914-6.592002-23.546685-12.508759-6.759142-5.903385-12.181164-13.805765-16.292808-23.727196-4.111644-9.894689-6.164124-22.329906-6.164124-37.278908 0-0.347651 0.588333-5.649332 1.764999-15.905044 1.163294-10.249026 4.907231-26.414808 11.225123-48.497346 6.304521-22.062482 16.072184-50.656795 29.276245-85.769569 13.210747-35.112774 31.843515-77.686678 55.904991-127.741769 6.164124-13.210747 13.277603-22.684242 21.347122-28.420488 8.076205-5.736245 16.800914-8.604368 26.194183-8.604368 4.111644 0 8.363686 0.615075 12.769497 1.818483 4.405811 1.23015 8.504084 3.128861 12.328247 5.736245 3.810792 2.607384 6.892854 5.916756 9.246185 9.901374 2.353331 3.997989 3.523311 8.597682 3.523311 13.819136 0 3.476512-0.44125 6.785885-1.323749 9.894689-1.470832 5.930128-4.61975 13.651996-9.46681 23.205719-4.84706 9.567094-10.489707 20.524794-16.941312 32.859726-6.464976 12.341619-13.284288 25.639278-20.471309 39.892978-7.193706 14.2537-13.865935 29.022192-20.030059 44.318846-6.164124 15.30334-11.445748 30.854046-15.844873 46.665491-4.405811 15.818131-6.89954 31.201698-7.481187 46.137329 0 6.264408 1.464147 12.000653 4.399125 17.208736 2.928293 5.214768 7.768668 7.828838 14.52781 7.828838 19.074018 0 37.265537-6.264408 54.587928-18.779852 17.315705-12.508759 33.300976-28.066151 47.98924-46.665491 14.668207-18.585969 27.952496-38.5826 39.832808-59.963151 11.886998-21.38055 21.801743-40.929246 29.717494-58.659459 5.575791-11.820142 10.483022-24.509411 14.748435-38.067809 4.252042-13.551712 8.871792-26.060471 13.865935-37.539647 4.987458-11.47249 10.710332-21.026214 17.161936-28.674541 6.451604-7.648327 14.52781-11.47249 24.215245-11.47249 10.563249 0 18.920249 4.004675 25.091059 11.987282 6.164124 8.002664 9.2395 17.556387 9.2395 28.681226 0 6.264408-1.972252 14.86209-5.936813 25.806418-3.971247 10.957699-8.958705 23.473143-14.975745 37.546332-6.010355 14.073189-12.542187 29.109105-19.582124 45.101061-7.046623 15.998642-13.58514 32.244651-19.588809 48.751399-6.023726 16.520119-11.004498 32.685901-14.96906 48.504032-3.964561 15.811445-5.943499 30.499709-5.943499 44.051422 0 12.52213 6.451604 18.773166 19.361499 18.773166 9.092417 0 20.397767-3.128861 33.889309-9.373212 13.511599-6.264408 27.665015-15.042601 42.486991-26.33458 14.815291-11.291979 29.637267-24.596324 44.459243-39.886293 14.815291-15.296654 27.959181-31.810087 39.398244-49.5403L1006.617439 631.154115zM1020.269435 605.066902c-3.229145 8.002664-6.384748 17.302334-9.46681 27.905696-3.088747 10.603362-4.61975 20.070173-4.61975 28.413802 0 5.208083 0.882499 9.379897 2.640812 12.515444 1.764999 3.128861 5.141227 4.693292 10.13537 4.693292 6.157438 0 13.85925-2.166135 23.105435-6.51846 9.2395-4.34564 19.214416-10.088571 29.938119-17.208736 10.717018-7.113479 21.868599-15.289968 33.454745-24.509411 11.586146-9.206072 23.112121-18.773166 34.557869-28.674541 11.452434-9.914746 22.376705-19.81612 32.799556-29.717494 10.416166-9.914746 19.735893-19.04059 27.959181-27.377534 2.346646-2.433559 5.127856-4.1785 8.363686-5.214768 3.215774-1.042954 6.010355-1.564431 8.363686-1.564431 5.863272 0 10.717018 2.433559 14.52781 7.307361 3.804107 4.867117 5.716188 11.285294 5.716188 19.294643 0 7.29399-2.059165 15.463794-6.157438 24.502726-4.111644 9.045617-11.298665 17.910724-21.581118 26.588633-18.786537 20.518108-37.706787 39.979891-56.787491 58.405406-19.080704 18.425515-38.074495 34.671524-57.00143 48.744713-18.933621 14.08656-37.720158 25.291627-56.352927 33.641942-18.639454 8.336944-36.757432 12.508759-54.373989 12.508759-12.034081 0-22.089224-1.912082-30.152058-5.72956-8.082891-3.830849-14.52781-9.045617-19.368185-15.63762-4.84706-6.612059-8.29683-14.427526-10.34931-23.473143-2.059165-9.038932-3.075376-18.585969-3.075376-28.674541 0-17.03491 2.126021-34.497699 6.378063-52.415108 4.252042-17.890667 9.313041-34.323873 15.182999-49.26619 10.269082-27.123481 20.698619-54.046394 31.261868-80.822224 10.556563-26.762459 20.243998-51.27187 29.062305-73.528234l133.37773-336.319133c5.281624-13.558398 12.395103-23.118807 21.353808-28.681226 8.952019-5.555734 17.970894-8.343629 27.076682-8.343629 9.085731 0 17.389247 2.955035 24.877119 8.865106 7.474501 5.916756 11.225123 15.47048 11.225123 28.681226 0 6.257722-1.256893 12.863095-3.750622 19.809434-2.493729 6.966396-5.649332 14.427526-9.460125 22.423504-7.340789 16.339608-16.065498 36.329553-26.194183 59.956465-10.128685 23.646969-20.992786 49.366474-32.585617 77.171887-11.586146 27.818784-23.479829 56.754063-35.647622 86.819208-12.18785 30.065145-24.074847 59.354761-35.667679 87.862162-11.586146 28.514086-22.443561 55.530598-32.572246 81.082963C1036.334933 564.137655 1027.603539 586.300421 1020.269435 605.066902zM1644.069389 510.692965c4.111644-2.78121 7.935808-5.034257 11.452434-6.785885 3.516626-1.724885 6.892854-2.607384 10.128685-2.607384 6.444919 0 11.291979 2.874808 14.52781 8.604368 3.222459 5.736245 4.840375 12.776183 4.840375 21.119812 0 9.052303-1.972252 18.245004-5.943499 27.638272-3.957875 9.379897-9.901374 17.20205-17.830497 23.459772-31.408951 27.812098-59.434988 53.183952-84.071426 76.135618-24.656495 22.938295-47.922384 42.674188-69.784298 59.187621-21.861914 16.513433-43.209036 29.289616-64.048053 38.321862-20.839017 9.032246-43.14218 13.551712-66.922861 13.551712-22.303163 0-39.545327-4.873803-51.719805-14.601351-12.181164-9.727549-18.271746-23.112121-18.271746-40.153717 0-1.383919 0-2.680926 0-3.911076 0-1.210094 0.140398-2.687611 0.44125-4.432553 1.163294-10.422851 5.722874-22.423504 13.645311-35.975216 7.929122-13.558398 17.462788-27.638272 28.61437-42.232938s23.031894-29.376529 35.660993-44.325531c12.615728-14.935632 24.275415-29.109105 34.999119-42.500362 10.710332-13.371201 19.588809-25.625907 26.622061-36.757432 7.053309-11.118154 10.569934-20.1504 10.569934-27.11011 0-4.171815-1.477518-7.467816-4.399125-9.90806-2.928293-2.426873-7.782039-3.643652-14.52781-3.643652-11.7466 0-23.840851 3.035263-36.316182 9.125845-12.482016 6.070525-24.810263 14.247015-36.984742 24.49604-12.181164 10.262397-24.074847 21.995626-35.660993 35.199687-11.592831 13.217432-22.443561 26.94297-32.578931 41.19667-10.128685 14.260386-19.361499 28.587628-27.731871 43.021839-8.363686 14.42084-15.483851 27.7185-21.347122 39.886293-1.758313 3.824163-4.258728 9.219443-7.487873 16.165782-3.229145 6.95971-6.752457 14.781863-10.556563 23.473143-3.824163 8.684595-7.855581 17.649985-12.114308 26.842686-4.258728 9.219443-8.143061 17.917409-11.659687 26.073842-3.523311 8.169804-6.6856 15.457108-9.46681 21.902027-2.794581 6.424862-4.780204 10.857415-5.943499 13.290974-1.477518 3.128861-3.897705 9.032246-7.267248 17.723527-3.376228 8.691281-7.260562 18.853393-11.673058 30.506395-4.39244 11.63963-9.025561 23.894336-13.85925 36.757432s-9.386583 25.030888-13.645311 36.503379c-4.258728 11.465805-8.002664 21.54769-11.225123 30.238971-3.229145 8.684595-5.28831 14.601351-6.170809 17.723527-2.928293 9.038932-6.384748 17.549701-10.342624 25.552365-3.964561 7.989293-8.510769 15.02923-13.645311 21.119812-5.134541 6.070525-11.011184 10.944328-17.609872 14.601351-6.612059 3.650338-14.019704 5.468821-22.229622 5.468821-10.569934 0-19.294643-2.527157-26.200868-7.561414-6.886169-5.040943-10.342624-14.688264-10.342624-28.941965 0-6.953025 0.875814-14.073189 2.640812-21.367179 1.771684-7.307361 3.971247-14.52781 6.605373-21.647974 2.640812-7.12685 5.361852-14.073189 8.143061-20.845702 2.794581-6.785885 5.368537-13.297659 7.701812-19.562067 15.851559-34.765123 31.990598-69.610472 48.423804-104.549421 16.439892-34.938948 32.211223-69.510188 47.32068-103.767205 15.116143-34.23696 29.129161-67.872216 42.052427-100.899083 12.909895-33.020181 23.620227-64.656442 32.130996-94.895413 2.346646-6.264408 5.575791-15.122828 9.687435-26.602004 4.104959-11.465805 8.79825-22.757784 14.08656-33.889309 5.281624-11.118154 11.225123-20.765475 17.823811-28.928593 6.605373-8.169804 13.718852-12.261391 21.347122-12.261391 11.7466 0 20.250684 2.687611 25.532308 8.082891 5.28831 5.39528 7.929122 13.290974 7.929122 23.727196 0 2.085907-0.294166 5.39528-0.875814 9.901374-0.595018 4.519466-1.323749 9.313041-2.199563 14.347299-0.882499 5.040943-1.83854 9.821147-2.868123 14.347299-1.029582 4.519466-1.985623 7.815467-2.868123 9.894689 10.857415-11.820142 22.59733-23.546685 35.226429-35.193001 12.615728-11.63963 25.679392-22.169451 39.184305-31.549349 13.491542-9.379897 27.290621-17.028224 41.377181-22.951667 14.08656-5.903385 28.17312-8.858421 42.259681-8.858421 9.674064 0 19.294643 1.390605 28.828309 4.171815 9.533666 2.78121 18.051121 6.866112 25.532308 12.24802 7.487873 5.401965 13.571769 12.174479 18.265061 20.337597 4.686606 8.176489 7.039937 17.649985 7.039937 28.420488 0 14.260386-3.590167 29.463441-10.777188 45.629223-7.193706 16.159096-16.219267 32.411791-27.069996 48.744713-10.870786 16.346293-22.610701 32.244651-35.226429 47.715131-12.629099 15.47048-24.429184 29.550354-35.440368 42.232938-11.004498 12.68927-20.243998 23.466458-27.731871 32.324878-7.481187 8.871792-11.378892 14.868776-11.666373 17.990951 0 4.1785 1.323749 7.561414 3.964561 10.168798s7.046623 3.911076 13.210747 3.911076c4.987458 0 12.328247-2.787895 22.015682-8.350315 9.674064-5.555734 23.252519-15.203056 40.715307-28.928593 17.449417-13.732223 39.625554-32.157738 66.474926-55.283231C1571.65765 574.928215 1604.744687 545.805739 1644.069389 510.692965z" fill="#272636"></path></g></g></svg>